<svg xmlns="http://www.w3.org/2000/svg" version="1.1" xmlns:xlink="http://www.w3.org/1999/xlink" width="512" height="512" x="0" y="0" viewBox="0 0 24 24" style="enable-background:new 0 0 512 512" xml:space="preserve" class=""><g><path d="M12 .007a10 10 0 0 0-7.063 17.078L12 23.993l7.071-6.916A10 10 0 0 0 12 .007Zm5.665 15.648L12 21.2l-5.657-5.537a8 8 0 1 1 11.322-.008Zm-1.647-8.232-2.5-1.91a2.507 2.507 0 0 0-3.035 0l-2.5 1.91A2.513 2.513 0 0 0 7 9.409V14h10V9.409a2.515 2.515 0 0 0-.982-1.986ZM15 12h-2v-2h-2v2H9V9.409a.5.5 0 0 1 .2-.4L11.7 7.1a.5.5 0 0 1 .608 0l2.5 1.91a.5.5 0 0 1 .2.4Z" fill="#0b3b6f" opacity="1" data-original="#000000" class=""></path></g></svg>