<svg xmlns="http://www.w3.org/2000/svg" version="1.1" xmlns:xlink="http://www.w3.org/1999/xlink" width="512" height="512" x="0" y="0" viewBox="0 0 24 24" style="enable-background:new 0 0 512 512" xml:space="preserve" class=""><g><path d="M8 4H4a4 4 0 0 0-4 4v4a2 2 0 0 0 2 2h5.91A6.006 6.006 0 0 1 2 19a1 1 0 0 0 0 2 8.009 8.009 0 0 0 8-8V6a2 2 0 0 0-2-2ZM22 4h-4a4 4 0 0 0-4 4v4a2 2 0 0 0 2 2h5.91A6.006 6.006 0 0 1 16 19a1 1 0 0 0 0 2 8.009 8.009 0 0 0 8-8V6a2 2 0 0 0-2-2Z" fill="#0066c9" opacity="1" data-original="#000000" class=""></path></g></svg>